<svg width="188" height="32" viewBox="0 0 188 32" fill="none" xmlns="http://www.w3.org/2000/svg">
<path d="M9.80555 19.9817V28.1025C9.80555 28.4138 9.68188 28.7124 9.46173 28.9324C9.2417 29.1526 8.94315 29.2762 8.6318 29.2762C8.32056 29.2762 8.02201 29.1526 7.80187 28.9324C7.58172 28.7124 7.45806 28.4138 7.45806 28.1025V19.993C7.78491 20.2317 8.17668 20.3649 8.58126 20.3749C9.02223 20.3874 9.45432 20.2487 9.80555 19.9817ZM19.802 17.6343C19.5042 17.6343 19.2184 17.7526 19.0078 17.9632C18.7972 18.1738 18.6788 18.4596 18.6788 18.7575V20.1727C18.6788 20.484 18.8025 20.7826 19.0226 21.0026C19.2427 21.2228 19.5412 21.3464 19.8526 21.3464C20.1639 21.3464 20.4625 21.2228 20.6825 21.0026C20.9027 20.7826 21.0263 20.484 21.0263 20.1727V18.8136C21.0351 18.6526 21.009 18.4915 20.9499 18.3414C20.8909 18.1914 20.8002 18.0557 20.684 17.9438C20.5678 17.8319 20.4289 17.7464 20.2768 17.6929C20.1246 17.6395 19.9627 17.6195 19.802 17.6343ZM4.90839 23.0593C4.50423 23.0472 4.11297 22.9142 3.78519 22.6774V30.8206C3.78519 31.1335 3.90944 31.4335 4.13062 31.6546C4.35179 31.8758 4.65176 32 4.96455 32C5.27734 32 5.57731 31.8758 5.79848 31.6546C6.01966 31.4335 6.14391 31.1335 6.14391 30.8206V22.7336C5.77713 22.9707 5.34437 23.0848 4.90839 23.0593ZM16.1404 15.1969C15.9882 15.1893 15.8361 15.2127 15.6933 15.2658C15.5505 15.3188 15.42 15.4003 15.3096 15.5053C15.1993 15.6105 15.1115 15.7368 15.0516 15.8769C14.9917 16.017 14.9608 16.1678 14.961 16.3201V22.5763C14.961 22.8892 15.0853 23.1892 15.3064 23.4103C15.5277 23.6315 15.8276 23.7557 16.1404 23.7557C16.4532 23.7557 16.7532 23.6315 16.9744 23.4103C17.1955 23.1892 17.3198 22.8892 17.3198 22.5763V16.3987C17.3287 16.2367 17.3025 16.0746 17.2427 15.9236C17.183 15.7727 17.0913 15.6364 16.9738 15.5243C16.8563 15.4122 16.716 15.3269 16.5625 15.2743C16.409 15.2216 16.2458 15.2029 16.0842 15.2194L16.1404 15.1969ZM12.4114 17.6006C11.9883 17.5976 11.5765 17.4643 11.232 17.2187V25.3843C11.232 25.6972 11.3562 25.9972 11.5774 26.2183C11.7987 26.4395 12.0986 26.5637 12.4114 26.5637C12.7242 26.5637 13.0241 26.4395 13.2453 26.2183C13.4665 25.9972 13.5907 25.6972 13.5907 25.3843V17.2299C13.2345 17.4953 12.7994 17.6337 12.3552 17.623L12.4114 17.6006ZM2.35872 23.8568V1.04458C2.35577 0.766506 2.24322 0.500847 2.04554 0.305264C1.84786 0.109681 1.581 -1.12311e-05 1.30291 8.625e-10H1.05581C0.777727 -1.12311e-05 0.510866 0.109681 0.313182 0.305264C0.115499 0.500847 0.00295402 0.766506 0 1.04458V23.8568C0 24.1368 0.111242 24.4054 0.30924 24.6034C0.507238 24.8014 0.775795 24.9126 1.05581 24.9126H1.30291C1.58294 24.9126 1.85148 24.8014 2.04948 24.6034C2.24749 24.4054 2.35872 24.1368 2.35872 23.8568ZM5.03194 22.1945H4.78484C4.50482 22.1945 4.23627 22.0833 4.03827 21.8852C3.84027 21.6872 3.72903 21.4187 3.72903 21.1386V3.76272C3.73199 3.48466 3.84453 3.21898 4.04221 3.02341C4.23989 2.82783 4.50675 2.71814 4.78484 2.71815H5.03194C5.31002 2.71814 5.57688 2.82783 5.77457 3.02341C5.97225 3.21898 6.0848 3.48466 6.08775 3.76272V21.1611C6.08775 21.4411 5.97651 21.7097 5.77851 21.9077C5.58051 22.1057 5.31195 22.2169 5.03194 22.2169V22.1945ZM8.74974 19.5212H8.4914C8.21442 19.5212 7.94867 19.4112 7.75278 19.2153C7.5569 19.0194 7.44682 18.7538 7.44682 18.4767V6.45841C7.44536 6.32029 7.47131 6.18325 7.52309 6.05521C7.57487 5.92718 7.65158 5.8107 7.74874 5.71251C7.8459 5.61432 7.96159 5.53637 8.08907 5.48318C8.21655 5.42998 8.35325 5.40259 8.4914 5.4026H8.74974C9.02784 5.40556 9.29348 5.5181 9.48903 5.71578C9.68469 5.91346 9.79431 6.18032 9.79431 6.45841V18.4767C9.79431 18.7538 9.68424 19.0194 9.48835 19.2153C9.29247 19.4112 9.02683 19.5212 8.74974 19.5212ZM12.4675 16.7694H12.2317C11.9536 16.7694 11.6867 16.6598 11.489 16.4641C11.2913 16.2686 11.1788 16.0029 11.1759 15.7248V9.25518C11.1666 9.11096 11.1871 8.9664 11.2361 8.83038C11.2849 8.69448 11.3613 8.56991 11.4602 8.46467C11.5592 8.35931 11.6787 8.27552 11.8115 8.21824C11.9441 8.16107 12.0871 8.13164 12.2317 8.13198H12.4788C12.7588 8.13198 13.0273 8.24317 13.2254 8.44119C13.4234 8.63921 13.5346 8.90777 13.5346 9.18779V15.7024C13.536 15.842 13.5099 15.9805 13.4574 16.1098C13.4051 16.2392 13.3276 16.357 13.2293 16.4562C13.1311 16.5554 13.0143 16.6342 12.8854 16.688C12.7565 16.7418 12.6184 16.7694 12.4788 16.7694H12.4675ZM16.1966 14.3545H15.9495C15.6694 14.3545 15.4009 14.2433 15.2029 14.0453C15.0048 13.8473 14.8936 13.5787 14.8936 13.2987V11.6251C14.8966 11.347 15.0091 11.0814 15.2068 10.8858C15.4045 10.6902 15.6714 10.5806 15.9495 10.5806H16.1966C16.4747 10.5806 16.7415 10.6902 16.9392 10.8858C17.1369 11.0814 17.2495 11.347 17.2524 11.6251V13.2987C17.2524 13.5768 17.1427 13.8437 16.9471 14.0414C16.7515 14.239 16.4859 14.3516 16.2078 14.3545H16.1966Z" fill="#697077"/>
<path d="M33.2549 20.4697L35.8037 9.70312H37.2275L37.5527 11.4961L34.8369 22.5H33.3076L33.2549 20.4697ZM31.9453 9.70312L34.0547 20.4697L33.8789 22.5H32.1738L29.335 9.70312H31.9453ZM39.7939 20.4258L41.877 9.70312H44.4873L41.6572 22.5H39.9521L39.7939 20.4258ZM38.0273 9.70312L40.5938 20.5137L40.5234 22.5H38.9941L36.2607 11.4873L36.6123 9.70312H38.0273ZM50.7539 11.8916L47.2734 22.5H44.4697L49.2246 9.70312H51.0088L50.7539 11.8916ZM53.6455 22.5L50.1562 11.8916L49.875 9.70312H51.6768L56.458 22.5H53.6455ZM53.4873 17.7363V19.8018H46.7285V17.7363H53.4873ZM61.5557 19.8281L64.5703 9.70312H67.5059L63.0498 22.5H61.1162L61.5557 19.8281ZM58.7783 9.70312L61.7842 19.8281L62.2412 22.5H60.29L55.8604 9.70312H58.7783ZM77.2881 20.4434V22.5H70.4766V20.4434H77.2881ZM71.3379 9.70312V22.5H68.7012V9.70312H71.3379ZM76.4004 14.915V16.9189H70.4766V14.915H76.4004ZM77.2793 9.70312V11.7686H70.4766V9.70312H77.2793ZM85.4883 19.1514C85.4883 18.9229 85.4531 18.7178 85.3828 18.5361C85.3184 18.3486 85.1953 18.1787 85.0137 18.0264C84.832 17.8682 84.5771 17.7129 84.249 17.5605C83.9209 17.4082 83.4961 17.25 82.9746 17.0859C82.3945 16.8984 81.8438 16.6875 81.3223 16.4531C80.8066 16.2188 80.3496 15.9463 79.9512 15.6357C79.5586 15.3193 79.248 14.9531 79.0195 14.5371C78.7969 14.1211 78.6855 13.6377 78.6855 13.0869C78.6855 12.5537 78.8027 12.0703 79.0371 11.6367C79.2715 11.1973 79.5996 10.8223 80.0215 10.5117C80.4434 10.1953 80.9414 9.95215 81.5156 9.78223C82.0957 9.6123 82.7314 9.52734 83.4229 9.52734C84.3662 9.52734 85.1895 9.69727 85.8926 10.0371C86.5957 10.377 87.1406 10.8428 87.5273 11.4346C87.9199 12.0264 88.1162 12.7031 88.1162 13.4648H85.4971C85.4971 13.0898 85.418 12.7617 85.2598 12.4805C85.1074 12.1934 84.873 11.9678 84.5566 11.8037C84.2461 11.6396 83.8535 11.5576 83.3789 11.5576C82.9219 11.5576 82.541 11.6279 82.2363 11.7686C81.9316 11.9033 81.7031 12.0879 81.5508 12.3223C81.3984 12.5508 81.3223 12.8086 81.3223 13.0957C81.3223 13.3125 81.375 13.5088 81.4805 13.6846C81.5918 13.8604 81.7559 14.0244 81.9727 14.1768C82.1895 14.3291 82.4561 14.4727 82.7725 14.6074C83.0889 14.7422 83.4551 14.874 83.8711 15.0029C84.5684 15.2139 85.1807 15.4512 85.708 15.7148C86.2412 15.9785 86.6865 16.2744 87.0439 16.6025C87.4014 16.9307 87.6709 17.3027 87.8525 17.7188C88.0342 18.1348 88.125 18.6064 88.125 19.1338C88.125 19.6904 88.0166 20.1885 87.7998 20.6279C87.583 21.0674 87.2695 21.4395 86.8594 21.7441C86.4492 22.0488 85.96 22.2803 85.3916 22.4385C84.8232 22.5967 84.1875 22.6758 83.4844 22.6758C82.8516 22.6758 82.2275 22.5938 81.6123 22.4297C80.9971 22.2598 80.4375 22.0049 79.9336 21.665C79.4355 21.3252 79.0371 20.8916 78.7383 20.3643C78.4395 19.8369 78.29 19.2129 78.29 18.4922H80.9355C80.9355 18.8906 80.9971 19.2275 81.1201 19.5029C81.2432 19.7783 81.416 20.001 81.6387 20.1709C81.8672 20.3408 82.1367 20.4639 82.4473 20.54C82.7637 20.6162 83.1094 20.6543 83.4844 20.6543C83.9414 20.6543 84.3164 20.5898 84.6094 20.4609C84.9082 20.332 85.1279 20.1533 85.2686 19.9248C85.415 19.6963 85.4883 19.4385 85.4883 19.1514ZM90.7969 9.70312H92.4404L96.6328 20.1357L100.816 9.70312H102.469L97.2656 22.5H95.9824L90.7969 9.70312ZM90.2607 9.70312H91.7109L91.9482 17.5078V22.5H90.2607V9.70312ZM101.546 9.70312H102.996V22.5H101.309V17.5078L101.546 9.70312ZM110.871 10.8369L106.635 22.5H104.903L109.781 9.70312H110.897L110.871 10.8369ZM114.422 22.5L110.177 10.8369L110.15 9.70312H111.267L116.162 22.5H114.422ZM114.202 17.7627V19.1514H107.013V17.7627H114.202ZM117.876 9.70312H122.112C123.073 9.70312 123.885 9.84961 124.547 10.1426C125.215 10.4355 125.722 10.8691 126.067 11.4434C126.419 12.0117 126.595 12.7119 126.595 13.5439C126.595 14.1299 126.475 14.666 126.234 15.1523C126 15.6328 125.66 16.043 125.215 16.3828C124.775 16.7168 124.248 16.9658 123.633 17.1299L123.158 17.3145H119.177L119.159 15.9346H122.165C122.774 15.9346 123.281 15.8291 123.686 15.6182C124.09 15.4014 124.395 15.1113 124.6 14.748C124.805 14.3848 124.907 13.9834 124.907 13.5439C124.907 13.0518 124.811 12.6211 124.617 12.252C124.424 11.8828 124.119 11.5986 123.703 11.3994C123.293 11.1943 122.763 11.0918 122.112 11.0918H119.572V22.5H117.876V9.70312ZM125.355 22.5L122.244 16.6992L124.011 16.6904L127.166 22.3945V22.5H125.355ZM133.705 10.8369L129.469 22.5H127.737L132.615 9.70312H133.731L133.705 10.8369ZM137.256 22.5L133.011 10.8369L132.984 9.70312H134.101L138.996 22.5H137.256ZM137.036 17.7627V19.1514H129.847V17.7627H137.036ZM144.313 9.70312V22.5H142.644V9.70312H144.313ZM148.427 9.70312V11.0918H138.539V9.70312H148.427ZM158.684 15.2051V16.585H151.758V15.2051H158.684ZM152.021 9.70312V22.5H150.325V9.70312H152.021ZM160.16 9.70312V22.5H158.473V9.70312H160.16ZM173.027 15.6973V16.5059C173.027 17.4668 172.907 18.3281 172.667 19.0898C172.427 19.8516 172.081 20.499 171.63 21.0322C171.179 21.5654 170.637 21.9727 170.004 22.2539C169.377 22.5352 168.674 22.6758 167.895 22.6758C167.139 22.6758 166.444 22.5352 165.812 22.2539C165.185 21.9727 164.64 21.5654 164.177 21.0322C163.72 20.499 163.365 19.8516 163.113 19.0898C162.861 18.3281 162.735 17.4668 162.735 16.5059V15.6973C162.735 14.7363 162.858 13.8779 163.104 13.1221C163.356 12.3604 163.711 11.7129 164.168 11.1797C164.625 10.6406 165.167 10.2305 165.794 9.94922C166.427 9.66797 167.121 9.52734 167.877 9.52734C168.656 9.52734 169.359 9.66797 169.986 9.94922C170.619 10.2305 171.161 10.6406 171.612 11.1797C172.069 11.7129 172.418 12.3604 172.658 13.1221C172.904 13.8779 173.027 14.7363 173.027 15.6973ZM171.349 16.5059V15.6797C171.349 14.918 171.27 14.2441 171.111 13.6582C170.959 13.0723 170.733 12.5801 170.435 12.1816C170.136 11.7832 169.77 11.4814 169.336 11.2764C168.908 11.0713 168.422 10.9688 167.877 10.9688C167.35 10.9688 166.872 11.0713 166.444 11.2764C166.022 11.4814 165.659 11.7832 165.354 12.1816C165.056 12.5801 164.824 13.0723 164.66 13.6582C164.496 14.2441 164.414 14.918 164.414 15.6797V16.5059C164.414 17.2734 164.496 17.9531 164.66 18.5449C164.824 19.1309 165.059 19.626 165.363 20.0303C165.674 20.4287 166.04 20.7305 166.462 20.9355C166.89 21.1406 167.367 21.2432 167.895 21.2432C168.445 21.2432 168.935 21.1406 169.362 20.9355C169.79 20.7305 170.15 20.4287 170.443 20.0303C170.742 19.626 170.968 19.1309 171.12 18.5449C171.272 17.9531 171.349 17.2734 171.349 16.5059ZM185.411 9.70312V22.5H183.706L177.264 12.6299V22.5H175.567V9.70312H177.264L183.732 19.5996V9.70312H185.411Z" fill="#697077"/>
</svg>
